<?xml version="1.0" encoding="UTF-8"?>
<svg version="1.1" viewBox="0 0 2048 1037" width="1280" height="1280" xmlns="http://www.w3.org/2000/svg">
<path transform="translate(0)" d="m0 0h2048v1037h-2048z" fill="#1A325E"/>
<path transform="translate(507,158)" d="m0 0h85l701 4 233 2 32 2 22 4 21 6 19 7 22 11 12 8 14 11 17 17 10 14 12 21 8 18 8 24 5 25 3 26 1 18v22l-3 28-4 19-9 27-7 16-9 16-12 17-11 12-13 13-18 13-21 12-19 8-26 8-33 7-26 3h-26l12 14 13 14 9 11 11 13 36 42 9 10 9 11 11 12 9 11 12 14 10 11 7 8 9 10 9 11 8 9 9 11 9 10 9 11 11 11 2 3v3l-3 1-30 1h-168l-10-11-9-11-11-13-8-10-12-14-9-11-9-10-9-11-24-28-9-11-11-13-7-9-12-14-13-15-9-11-11-13-9-11-11-13-11-14-8-7-5-2-8-1-50 1-1 95v154l-7 2-175 2-2-2-1-53v-312l1-49 1-1h481v-15l2-47-83-1h-243l-705-1-1 54-1 12 58 1h177l91-1h29l21 1 19 4 19 7 23 12 16 12 10 9 10 12 9 15 10 21 6 18 7 32 3 27v41l-3 28-6 29-9 27-8 18-8 15-13 18-11 12-11 11-13 10-15 10-21 10-25 9-22 5-11 1h-46l-172-1h-288l-1-18v-132l1-28 5-1 464-1 1-75h-247l-27-2-29-5-25-7-20-7-20-9-18-10-14-10-14-11-19-19-11-15-11-18-10-22-8-25-5-24-4-29v-33l3-22 6-27 7-21 8-18 6-11 11-16 9-10 7-8 11-9 13-10 18-11 23-11 24-8 26-5z" fill="#E3B04C"/>
</svg>
